<?xml version="1.0" encoding="iso-8859-1"?>
<!-- Generator: Adobe Illustrator 19.0.0, SVG Export Plug-In . SVG Version: 6.00 Build 0)  -->
<svg version="1.1" id="Capa_1" xmlns="http://www.w3.org/2000/svg" xmlns:xlink="http://www.w3.org/1999/xlink" x="0px" y="0px"
	 viewBox="0 0 512.001 512.001" style="enable-background:new 0 0 512.001 512.001;" xml:space="preserve">
<g>
	<g>
		<path d="M209.101,494.487L17.28,303.217c-2.581-2.574-6.98-1.234-7.707,2.338c-1.614,7.931-2.869,15.236-3.844,21.761
			c-10.212,68.438-2.785,133.251,18.063,157.617c18.129,21.187,60.923,25.908,84.817,26.836c3.963,0.154,8.026,0.232,12.198,0.232
			c25.683,0,55.14-2.992,86.053-9.81C210.385,501.414,211.657,497.035,209.101,494.487z"/>
	</g>
</g>
<g>
	<g>
		<path d="M510.796,117.381c-0.217-21.17-3.062-72.656-24.759-93.482C463.204,1.983,398.477-5.932,328.631,4.654
			c-9.775,1.481-21.286,3.591-34.034,6.59c-3.49,0.821-4.73,5.158-2.191,7.689l199.31,198.736c2.529,2.522,6.858,1.297,7.678-2.179
			C507.663,180.437,511.096,146.684,510.796,117.381z"/>
	</g>
</g>
<g>
	<g>
		<path d="M485.7,254.041L255.917,24.919c-1.236-1.232-3.064-1.661-4.714-1.089c-44.883,15.591-96.402,41.883-140.711,86.192
			c-47.851,47.851-74.543,104.042-89.425,151.133c-0.513,1.625-0.069,3.396,1.138,4.6L246.08,488.984
			c1.222,1.219,3.027,1.654,4.666,1.109c52.283-17.388,105.591-46.203,149.604-90.215c41.279-41.278,69.066-91.206,86.45-141.102
			C487.375,257.12,486.942,255.279,485.7,254.041z M358.149,218.774c-2.935,2.962-6.796,4.443-10.656,4.443
			c-3.84,0-7.679-1.464-10.608-4.395l-8.721-8.721c-1.784-1.784-4.678-1.784-6.462,0l-9.957,9.957c-1.784,1.784-1.784,4.678,0,6.462
			l8.404,8.404c5.892,5.892,6.231,15.565,0.365,21.484c-2.935,2.962-6.796,4.443-10.657,4.443c-3.84,0-7.679-1.464-10.607-4.395
			l-8.721-8.721c-1.784-1.784-4.678-1.784-6.462,0l-10.62,10.62c-1.784,1.784-1.784,4.678,0,6.462l8.05,8.05
			c5.892,5.892,6.231,15.565,0.365,21.484c-2.935,2.962-6.796,4.443-10.657,4.443c-3.84,0-7.679-1.464-10.608-4.395L249,282.801
			l-13.188,13.188c-1.784,1.784-1.784,4.678,0,6.462l8.05,8.051c5.892,5.892,6.231,15.565,0.365,21.484
			c-2.935,2.962-6.796,4.443-10.656,4.443c-3.84,0-7.679-1.464-10.608-4.395l-8.367-8.367c-1.784-1.784-4.678-1.784-6.462,0
			l-9.249,9.249c-1.784,1.784-1.784,4.678,0,6.462l8.404,8.404c5.892,5.892,6.231,15.565,0.365,21.484
			c-2.935,2.962-6.796,4.443-10.657,4.443c-3.84,0-7.679-1.464-10.608-4.395l-8.834-8.834c-1.722-1.722-4.514-1.722-6.236,0
			l-0.43,0.43c-2.929,2.929-6.769,4.395-10.608,4.395c-4.148,0-8.295-1.709-11.295-5.128c-5.262-5.996-4.637-15.159,1.004-20.799
			c1.784-1.784,1.784-4.678,0-6.462l-8.42-8.42c-5.712-5.712-6.238-15.017-0.801-20.992c5.805-6.379,15.688-6.554,21.716-0.525
			l8.721,8.721c1.784,1.784,4.678,1.784,6.462,0l9.249-9.249c1.784-1.784,1.784-4.678,0-6.462l-8.774-8.774
			c-5.712-5.712-6.238-15.017-0.801-20.992c5.805-6.379,15.688-6.554,21.716-0.525l9.075,9.075c1.784,1.784,4.678,1.784,6.462,0
			l9.956-9.956c1.784-1.784,1.784-4.678,0-6.462l-8.774-8.774c-5.712-5.712-6.238-15.017-0.801-20.992
			c5.805-6.379,15.688-6.554,21.716-0.525l9.075,9.075c1.784,1.784,4.678,1.784,6.462,0l10.62-10.62
			c1.784-1.784,1.784-4.678,0-6.462l-8.42-8.42c-5.712-5.712-6.238-15.017-0.801-20.992c5.805-6.379,15.688-6.554,21.716-0.525
			l8.721,8.721c1.784,1.784,4.678,1.784,6.462,0l9.956-9.956c1.784-1.784,1.784-4.678,0-6.462l-8.421-8.42
			c-5.712-5.712-6.238-15.017-0.801-20.992c5.805-6.379,15.688-6.554,21.716-0.525l8.721,8.721c1.784,1.784,4.678,1.784,6.462,0
			l4.86-4.86c5.712-5.712,15.017-6.237,20.991-0.8c6.378,5.805,6.553,15.687,0.524,21.716l-5.16,5.159
			c-1.784,1.784-1.784,4.678,0,6.462l8.404,8.404C363.677,203.182,364.015,212.854,358.149,218.774z"/>
	</g>
</g>
<g>
</g>
<g>
</g>
<g>
</g>
<g>
</g>
<g>
</g>
<g>
</g>
<g>
</g>
<g>
</g>
<g>
</g>
<g>
</g>
<g>
</g>
<g>
</g>
<g>
</g>
<g>
</g>
<g>
</g>
</svg>
